<svg width="221" height="287" viewBox="0 0 221 287" fill="none" xmlns="http://www.w3.org/2000/svg">
<path fill-rule="evenodd" clip-rule="evenodd" d="M220.577 0H221V8.49112H220.577C165.157 8.49112 120.238 53.5365 120.238 109.111V287H111.77V109.111C111.77 48.8494 160.483 0 220.577 0Z" fill="#202020"/>
<path fill-rule="evenodd" clip-rule="evenodd" d="M8.46741 82.364L8.46741 169.823C8.46741 222.807 51.3126 265.772 104.149 265.772C156.986 265.772 199.831 222.807 199.831 169.823C199.831 116.838 156.986 73.8729 104.149 73.8729L16.9348 73.8729V65.3818L104.149 65.3818C161.669 65.3818 208.299 112.142 208.299 169.823C208.299 227.503 161.669 274.263 104.149 274.263C46.6301 274.263 -1.52588e-05 227.503 -1.52588e-05 169.823L-1.52588e-05 82.364H8.46741Z" fill="#202020"/>
<path d="M8.96729 74.4912H0.499863L0.499863 66.0001H8.96729L8.96729 74.4912Z" fill="#E70000"/>
</svg>
