<svg width="262" height="325" fill="none" xmlns="http://www.w3.org/2000/svg"><path fill-rule="evenodd" clip-rule="evenodd" d="M118 74h10a108 108 0 0 1 108 108v118H20v10h226V182A118 118 0 0 0 128 64h-10A118 118 0 0 0 0 182v108h10V182A108 108 0 0 1 118 74Z" fill="#202020"/><path fill="#E70000" d="M0 300h10v10H0z"/><path fill-rule="evenodd" clip-rule="evenodd" d="M261.4.8a43 43 0 0 0-33.5 10.6l-139.3 124a43 43 0 0 0-14.4 32.1V325h10V167.5a33 33 0 0 1 11-24.6l139.4-124a33 33 0 0 1 26.8-8V1Z" fill="#202020"/></svg>