<svg width="261" height="338" fill="none" xmlns="http://www.w3.org/2000/svg"><path fill-rule="evenodd" clip-rule="evenodd" d="M260.5 0h.5v10h-.5C195.05 10 142 63.05 142 128.5V338h-10V128.5C132 57.53 189.53 0 260.5 0z" fill="#202020"/><path fill-rule="evenodd" clip-rule="evenodd" d="M236 303V200c0-62.4-50.6-113-113-113S10 137.6 10 200s50.6 113 113 113h103v10H123C55.07 323 0 267.93 0 200S55.07 77 123 77s123 55.07 123 123v103h-10z" fill="#202020"/><path fill="#E70000" d="M236 313h10v10h-10z"/></svg>