<svg width="221" height="287" viewBox="0 0 221 287" fill="none" xmlns="http://www.w3.org/2000/svg">
<path fill-rule="evenodd" clip-rule="evenodd" d="M220.577 0H221V8.49112H220.577C165.157 8.49112 120.238 53.5365 120.238 109.111V287H111.77V109.111C111.77 48.8494 160.483 0 220.577 0Z" fill="#202020"/>
<path d="M200 66H208.467V74.4911H200V66Z" fill="#E70000"/>
<path fill-rule="evenodd" clip-rule="evenodd" d="M109.458 265.418H100.985C76.7143 265.418 53.438 255.755 36.2762 238.555C19.1145 221.355 9.47316 198.026 9.47316 173.701V73.4922L192.496 73.4922V64.9999L0.999879 64.9999V173.701C0.999879 200.279 11.534 225.767 30.2847 244.56C49.0355 263.353 74.467 273.911 100.985 273.911H109.458C135.975 273.911 161.407 263.353 180.158 244.56C198.909 225.767 209.443 200.279 209.443 173.701V81.9845H200.969V173.701C200.969 198.026 191.328 221.355 174.166 238.555C157.005 255.755 133.728 265.418 109.458 265.418V265.418Z" fill="#202020"/>
</svg>
